<?xml version="1.0" standalone="no"?><!DOCTYPE svg PUBLIC "-//W3C//DTD SVG 1.1//EN" "http://www.w3.org/Graphics/SVG/1.1/DTD/svg11.dtd"><svg t="1777357465597" class="icon" viewBox="0 0 1024 1024" version="1.1" xmlns="http://www.w3.org/2000/svg" p-id="1223" xmlns:xlink="http://www.w3.org/1999/xlink" width="32" height="32"><path d="M767.34 274.72l5.51 14.88a61.818 61.818 0 0 0 36.54 36.54l14.88 5.51c2.31 0.86 2.31 4.12 0 4.98l-14.88 5.51a61.818 61.818 0 0 0-36.54 36.54l-5.51 14.88c-0.86 2.31-4.12 2.31-4.98 0l-5.51-14.88a61.818 61.818 0 0 0-36.54-36.54l-14.88-5.51c-2.31-0.86-2.31-4.12 0-4.98l14.88-5.51a61.818 61.818 0 0 0 36.54-36.54l5.51-14.88c0.86-2.31 4.12-2.31 4.98 0z" fill="#1296db" p-id="1224"></path><path d="M764.85 410.31c-7.47 0-13.97-4.53-16.56-11.53l-5.51-14.88a46.79 46.79 0 0 0-27.68-27.68l-14.88-5.51c-7-2.59-11.53-9.09-11.53-16.56s4.52-13.97 11.53-16.56l14.88-5.51a46.79 46.79 0 0 0 27.68-27.68l5.51-14.88c2.59-7 9.09-11.53 16.56-11.53s13.97 4.53 16.56 11.53l5.51 14.88a46.79 46.79 0 0 0 27.68 27.68l14.88 5.51c7 2.59 11.53 9.09 11.53 16.56s-4.53 13.97-11.53 16.56l-14.88 5.51a46.79 46.79 0 0 0-27.68 27.68l-5.51 14.88c-2.59 7-9.09 11.53-16.56 11.53z m-26.63-76.16a76.805 76.805 0 0 1 26.63 26.63 76.805 76.805 0 0 1 26.63-26.63 76.805 76.805 0 0 1-26.63-26.63 76.805 76.805 0 0 1-26.63 26.63z m80.85 11.58h0.01-0.01z" fill="#1296db" p-id="1225"></path><path d="M643.01 772c-5.92 0-11.53-3.53-13.9-9.35L445.59 311.58c-3.72-9.13-11.82-14.58-21.68-14.58s-17.96 5.45-21.68 14.58L218.71 762.65c-3.12 7.67-11.87 11.36-19.55 8.24-7.67-3.12-11.36-11.87-8.24-19.55l183.52-451.07c8.35-20.53 27.31-33.28 49.47-33.28s41.11 12.75 49.47 33.28L656.9 751.34c3.12 7.67-0.57 16.42-8.24 19.55-1.85 0.75-3.77 1.11-5.65 1.11zM764.84 772c-8.28 0-15-6.72-15-15V463.31c0-8.28 6.72-15 15-15s15 6.72 15 15V757c0 8.28-6.72 15-15 15z" p-id="1226" fill="#1296db"></path><path d="M480.65 626.37H274.94c-8.28 0-15-6.72-15-15s6.72-15 15-15h205.71c8.28 0 15 6.72 15 15s-6.72 15-15 15z" p-id="1227" fill="#1296db"></path></svg>