<?xml version="1.0" standalone="no"?><!DOCTYPE svg PUBLIC "-//W3C//DTD SVG 1.1//EN" "http://www.w3.org/Graphics/SVG/1.1/DTD/svg11.dtd"><svg t="1777339744934" class="icon" viewBox="0 0 1024 1024" version="1.1" xmlns="http://www.w3.org/2000/svg" p-id="1275" xmlns:xlink="http://www.w3.org/1999/xlink" width="32" height="32"><path d="M266.666667 650.666667a32 32 0 1 1 0 64 32 32 0 0 1 0-64zM789.333333 661.333333a21.333333 21.333333 0 1 1 0 42.666667H405.333333a21.333333 21.333333 0 1 1 0-42.666667h384z m-522.666666-181.333333a32 32 0 1 1 0 64 32 32 0 0 1 0-64zM789.333333 490.666667a21.333333 21.333333 0 1 1 0 42.666666H405.333333a21.333333 21.333333 0 1 1 0-42.666666h384z m-522.666666-181.333334a32 32 0 1 1 0 64 32 32 0 0 1 0-64zM789.333333 320a21.333333 21.333333 0 1 1 0 42.666667H405.333333a21.333333 21.333333 0 1 1 0-42.666667h384z" p-id="1276" fill="#dbdbdb"></path></svg>