<?xml version="1.0" standalone="no"?><!DOCTYPE svg PUBLIC "-//W3C//DTD SVG 1.1//EN" "http://www.w3.org/Graphics/SVG/1.1/DTD/svg11.dtd"><svg t="1777339766316" class="icon" viewBox="0 0 1024 1024" version="1.1" xmlns="http://www.w3.org/2000/svg" p-id="1494" xmlns:xlink="http://www.w3.org/1999/xlink" width="32" height="32"><path d="M559.018667 106.816A42.666667 42.666667 0 0 1 597.333333 149.269333v44.586667l0.149334 3.52c1.429333 17.365333 13.482667 32.170667 29.802666 38.997333l1.237334 0.512c17.578667 7.466667 38.272 4.864 51.776-8.64l31.573333-31.573333a42.666667 42.666667 0 0 1 60.330667 0l60.330666 60.352a42.666667 42.666667 0 0 1 0 60.352l-33.984 33.984c-13.077333 13.056-15.893333 32.853333-9.045333 50.026667 6.570667 16.490667 21.397333 28.885333 38.826667 30.357333l3.541333 0.149333h48.128a42.666667 42.666667 0 0 1 42.666667 42.666667v85.333333l-0.213334 4.352a42.666667 42.666667 0 0 1-38.101333 38.08l-4.352 0.234667h-53.909333c-17.536 0-32.853333 11.584-39.808 27.690667l-1.216 3.114666c-5.546667 15.808-2.602667 33.642667 9.322666 45.568l38.186667 38.186667a42.666667 42.666667 0 0 1 0 60.309333l-60.373333 60.373334-3.221334 2.901333a42.666667 42.666667 0 0 1-53.888 0l-3.2-2.901333-41.045333-41.024c-12.032-12.032-30.293333-14.656-46.058667-8.234667-15.936 6.485333-27.456 21.461333-27.456 38.656v58.026667l-0.213333 4.352A42.666667 42.666667 0 0 1 554.666667 927.893333h-85.333334a42.666667 42.666667 0 0 1-42.666666-42.666666v-58.026667c0-16.128-10.154667-30.272-24.533334-37.333333l-2.944-1.301334c-15.786667-6.421333-34.048-3.818667-46.08 8.234667l-40.981333 41.002667-3.242667 2.901333a42.666667 42.666667 0 0 1-53.866666 0l-3.221334-2.901333-60.330666-60.352a42.666667 42.666667 0 0 1-2.944-57.088l2.944-3.242667 38.144-38.165333c11.925333-11.946667 14.890667-29.76 9.322666-45.568l-1.216-3.114667c-6.528-15.082667-20.394667-26.24-36.544-27.562667l-3.264-0.128H144.021333a42.666667 42.666667 0 0 1-42.666666-42.666666v-85.333334a42.666667 42.666667 0 0 1 42.666666-42.666666h48.085334c17.770667 0 33.28-11.349333 40.96-27.306667l1.408-3.242667c6.826667-17.152 4.010667-36.928-9.045334-49.984l-33.962666-34.005333a42.666667 42.666667 0 0 1-2.944-57.088l2.944-3.242667 60.330666-60.373333a42.666667 42.666667 0 0 1 60.330667 0l31.573333 31.573333c12.650667 12.650667 31.637333 15.722667 48.426667 9.92l3.349333-1.28 1.237334-0.512c16.32-6.826667 28.373333-21.632 29.802666-38.997333L426.666667 193.877333V149.248a42.666667 42.666667 0 0 1 42.666666-42.666667h85.333334l4.352 0.213334zM469.333333 193.856c0 38.613333-25.344 68.992-56.170666 81.877333l-1.066667 0.448c-31.061333 13.162667-70.954667 9.834667-98.56-17.770666l-31.573333-31.573334-60.330667 60.373334 33.984 34.005333c26.752 26.730667 30.741333 65.237333 18.496 95.978667-12.416 31.125333-42.858667 57.386667-82.005333 57.386666H144v85.333334h53.888c37.056 0 66.304 24.128 78.976 53.44 13.098667 30.378667 9.6 69.056-17.109333 95.786666l-38.144 38.144 60.330666 60.330667 40.96-41.002667 4.949334-4.544c25.365333-21.568 59.690667-24.32 87.424-13.013333C444.885333 761.066667 469.333333 790.186667 469.333333 827.178667v58.026666h85.333334v-58.026666c0-37.013333 24.448-66.090667 54.016-78.165334 27.733333-11.306667 62.058667-8.533333 87.402666 13.013334l4.949334 4.565333 41.002666 41.002667 60.373334-60.352-38.186667-38.165334c-26.709333-26.709333-30.208-65.386667-17.088-95.765333 12.650667-29.312 41.898667-53.44 78.933333-53.44h53.930667v-85.333333h-48.128c-39.146667 0-69.589333-26.261333-82.005333-57.386667-12.245333-30.762667-8.234667-69.248 18.538666-96l33.962667-33.962667-60.330667-60.373333-31.573333 31.573333c-27.605333 27.605333-67.52 30.933333-98.581333 17.770667l-1.066667-0.448C580.032 262.826667 554.666667 232.490667 554.666667 193.877333V149.248h-85.333334v44.629333zM512 362.666667a149.333333 149.333333 0 1 1 0 298.666666 149.333333 149.333333 0 0 1 0-298.666666z m0 42.666666a106.666667 106.666667 0 1 0 0 213.333334 106.666667 106.666667 0 0 0 0-213.333334z" p-id="1495" fill="#bfbfbf"></path></svg>